<mxfile host="app.diagrams.net" modified="2023-06-20T20:52:59.216Z" agent="Mozilla/5.0 (Macintosh; Intel Mac OS X 10_15_7) AppleWebKit/537.36 (KHTML, like Gecko) Chrome/114.0.0.0 Safari/537.36" etag="wWvoSw-3AzLq_0SOinB6" version="21.5.0" type="github">
  <diagram id="prtHgNgQTEPvFCAcTncT" name="Page-1">
    <mxGraphModel dx="2375" dy="1415" grid="1" gridSize="10" guides="1" tooltips="1" connect="1" arrows="1" fold="1" page="1" pageScale="1" pageWidth="827" pageHeight="1169" background="#E6D0DE" math="0" shadow="1">
      <root>
        <mxCell id="0" />
        <mxCell id="1" parent="0" />
        <mxCell id="3U8508BYd-Jw2ItALoRt-1" value="" style="swimlane;startSize=20;horizontal=1;containerType=tree;newEdgeStyle={&quot;edgeStyle&quot;:&quot;elbowEdgeStyle&quot;,&quot;startArrow&quot;:&quot;none&quot;,&quot;endArrow&quot;:&quot;none&quot;};shadow=1;swimlaneFillColor=none;sketch=1;curveFitting=1;jiggle=2;rounded=1;glass=1;labelBackgroundColor=none;fillColor=#A8DADC;strokeColor=#457B9D;fontColor=#1D3557;" vertex="1" parent="1">
          <mxGeometry x="80" y="35" width="1500" height="1100" as="geometry" />
        </mxCell>
        <mxCell id="3U8508BYd-Jw2ItALoRt-104" value="" style="rounded=1;whiteSpace=wrap;html=1;labelBackgroundColor=none;fillColor=#A8DADC;strokeColor=#457B9D;fontColor=#1D3557;sketch=1;curveFitting=1;jiggle=2;shadow=1;" vertex="1" parent="3U8508BYd-Jw2ItALoRt-1">
          <mxGeometry x="620" y="930" width="270" height="60" as="geometry" />
        </mxCell>
        <mxCell id="3U8508BYd-Jw2ItALoRt-86" value="" style="ellipse;whiteSpace=wrap;html=1;aspect=fixed;labelBackgroundColor=none;fillColor=#A8DADC;strokeColor=#457B9D;fontColor=#1D3557;" vertex="1" parent="3U8508BYd-Jw2ItALoRt-1">
          <mxGeometry x="440" y="250" width="110" height="110" as="geometry" />
        </mxCell>
        <mxCell id="3U8508BYd-Jw2ItALoRt-2" value="" style="edgeStyle=elbowEdgeStyle;elbow=vertical;sourcePerimeterSpacing=0;targetPerimeterSpacing=0;startArrow=none;endArrow=none;rounded=0;curved=0;labelBackgroundColor=none;strokeColor=#457B9D;fontColor=default;" edge="1" parent="3U8508BYd-Jw2ItALoRt-1" source="3U8508BYd-Jw2ItALoRt-4" target="3U8508BYd-Jw2ItALoRt-5">
          <mxGeometry relative="1" as="geometry" />
        </mxCell>
        <UserObject label="Home displays Title&amp;nbsp;&lt;br&gt;Plenty of Pizza&lt;br&gt;Includes Image &amp;amp;&lt;br&gt;corner dropdown button" treeRoot="1" id="3U8508BYd-Jw2ItALoRt-4">
          <mxCell style="whiteSpace=wrap;html=1;align=center;treeFolding=1;treeMoving=1;newEdgeStyle={&quot;edgeStyle&quot;:&quot;elbowEdgeStyle&quot;,&quot;startArrow&quot;:&quot;none&quot;,&quot;endArrow&quot;:&quot;none&quot;};labelBackgroundColor=none;fillColor=#A8DADC;strokeColor=#457B9D;fontColor=#1D3557;" vertex="1" parent="3U8508BYd-Jw2ItALoRt-1">
            <mxGeometry x="550" y="40" width="410" height="60" as="geometry" />
          </mxCell>
        </UserObject>
        <mxCell id="3U8508BYd-Jw2ItALoRt-100" style="edgeStyle=elbowEdgeStyle;rounded=0;orthogonalLoop=1;jettySize=auto;html=1;startArrow=none;endArrow=none;exitX=0.5;exitY=1;exitDx=0;exitDy=0;labelBackgroundColor=none;strokeColor=#457B9D;fontColor=default;" edge="1" parent="3U8508BYd-Jw2ItALoRt-1">
          <mxGeometry relative="1" as="geometry">
            <mxPoint x="90" y="920" as="sourcePoint" />
            <mxPoint x="1430" y="920" as="targetPoint" />
          </mxGeometry>
        </mxCell>
        <mxCell id="3U8508BYd-Jw2ItALoRt-101" style="edgeStyle=elbowEdgeStyle;rounded=0;orthogonalLoop=1;jettySize=auto;html=1;startArrow=none;endArrow=none;exitX=0.5;exitY=1;exitDx=0;exitDy=0;labelBackgroundColor=none;strokeColor=#457B9D;fontColor=default;" edge="1" parent="3U8508BYd-Jw2ItALoRt-1" source="3U8508BYd-Jw2ItALoRt-5">
          <mxGeometry relative="1" as="geometry">
            <mxPoint x="90" y="920" as="targetPoint" />
          </mxGeometry>
        </mxCell>
        <mxCell id="3U8508BYd-Jw2ItALoRt-5" value="About Us" style="whiteSpace=wrap;html=1;align=center;verticalAlign=middle;treeFolding=1;treeMoving=1;newEdgeStyle={&quot;edgeStyle&quot;:&quot;elbowEdgeStyle&quot;,&quot;startArrow&quot;:&quot;none&quot;,&quot;endArrow&quot;:&quot;none&quot;};labelBackgroundColor=none;fillColor=#A8DADC;strokeColor=#457B9D;fontColor=#1D3557;" vertex="1" parent="3U8508BYd-Jw2ItALoRt-1">
          <mxGeometry x="20" y="140" width="100" height="60" as="geometry" />
        </mxCell>
        <mxCell id="3U8508BYd-Jw2ItALoRt-8" value="" style="edgeStyle=elbowEdgeStyle;elbow=vertical;sourcePerimeterSpacing=0;targetPerimeterSpacing=0;startArrow=none;endArrow=none;rounded=0;curved=0;labelBackgroundColor=none;strokeColor=#457B9D;fontColor=default;" edge="1" target="3U8508BYd-Jw2ItALoRt-9" source="3U8508BYd-Jw2ItALoRt-4" parent="3U8508BYd-Jw2ItALoRt-1">
          <mxGeometry relative="1" as="geometry">
            <mxPoint x="825" y="170" as="sourcePoint" />
          </mxGeometry>
        </mxCell>
        <mxCell id="3U8508BYd-Jw2ItALoRt-48" style="edgeStyle=elbowEdgeStyle;rounded=0;orthogonalLoop=1;jettySize=auto;html=1;startArrow=none;endArrow=none;exitX=1;exitY=0.5;exitDx=0;exitDy=0;entryX=0;entryY=0.5;entryDx=0;entryDy=0;labelBackgroundColor=none;strokeColor=#457B9D;fontColor=default;" edge="1" parent="3U8508BYd-Jw2ItALoRt-1" source="3U8508BYd-Jw2ItALoRt-9" target="3U8508BYd-Jw2ItALoRt-44">
          <mxGeometry relative="1" as="geometry" />
        </mxCell>
        <mxCell id="3U8508BYd-Jw2ItALoRt-9" value="Menu" style="whiteSpace=wrap;html=1;align=center;verticalAlign=middle;treeFolding=1;treeMoving=1;newEdgeStyle={&quot;edgeStyle&quot;:&quot;elbowEdgeStyle&quot;,&quot;startArrow&quot;:&quot;none&quot;,&quot;endArrow&quot;:&quot;none&quot;};labelBackgroundColor=none;fillColor=#A8DADC;strokeColor=#457B9D;fontColor=#1D3557;" vertex="1" parent="3U8508BYd-Jw2ItALoRt-1">
          <mxGeometry x="450" y="140" width="100" height="60" as="geometry" />
        </mxCell>
        <mxCell id="3U8508BYd-Jw2ItALoRt-10" value="" style="edgeStyle=elbowEdgeStyle;rounded=0;orthogonalLoop=1;jettySize=auto;html=1;elbow=vertical;startArrow=none;endArrow=none;labelBackgroundColor=none;strokeColor=#457B9D;fontColor=default;" edge="1" source="3U8508BYd-Jw2ItALoRt-4" target="3U8508BYd-Jw2ItALoRt-11" parent="3U8508BYd-Jw2ItALoRt-1">
          <mxGeometry relative="1" as="geometry" />
        </mxCell>
        <mxCell id="3U8508BYd-Jw2ItALoRt-102" style="edgeStyle=elbowEdgeStyle;rounded=0;orthogonalLoop=1;jettySize=auto;html=1;startArrow=none;endArrow=none;targetPerimeterSpacing=2;exitX=1;exitY=0.75;exitDx=0;exitDy=0;labelBackgroundColor=none;strokeColor=#457B9D;fontColor=default;" edge="1" parent="3U8508BYd-Jw2ItALoRt-1" source="3U8508BYd-Jw2ItALoRt-11">
          <mxGeometry relative="1" as="geometry">
            <mxPoint x="1430" y="920" as="targetPoint" />
            <mxPoint x="1430" y="220" as="sourcePoint" />
            <Array as="points">
              <mxPoint x="1430" y="270" />
            </Array>
          </mxGeometry>
        </mxCell>
        <UserObject label="Contact Us" treeRoot="1" id="3U8508BYd-Jw2ItALoRt-11">
          <mxCell style="whiteSpace=wrap;html=1;align=center;treeFolding=1;treeMoving=1;newEdgeStyle={&quot;edgeStyle&quot;:&quot;elbowEdgeStyle&quot;,&quot;startArrow&quot;:&quot;none&quot;,&quot;endArrow&quot;:&quot;none&quot;};labelBackgroundColor=none;fillColor=#A8DADC;strokeColor=#457B9D;fontColor=#1D3557;" vertex="1" parent="3U8508BYd-Jw2ItALoRt-1">
            <mxGeometry x="1310" y="140" width="120" height="60" as="geometry" />
          </mxCell>
        </UserObject>
        <mxCell id="3U8508BYd-Jw2ItALoRt-13" value="" style="edgeStyle=elbowEdgeStyle;elbow=vertical;sourcePerimeterSpacing=0;targetPerimeterSpacing=0;startArrow=none;endArrow=none;rounded=0;curved=0;labelBackgroundColor=none;strokeColor=#457B9D;fontColor=default;" edge="1" target="3U8508BYd-Jw2ItALoRt-14" source="3U8508BYd-Jw2ItALoRt-9" parent="3U8508BYd-Jw2ItALoRt-1">
          <mxGeometry relative="1" as="geometry">
            <mxPoint x="635" y="150" as="sourcePoint" />
          </mxGeometry>
        </mxCell>
        <mxCell id="3U8508BYd-Jw2ItALoRt-39" style="edgeStyle=elbowEdgeStyle;rounded=0;orthogonalLoop=1;jettySize=auto;html=1;startArrow=none;endArrow=none;entryX=0.327;entryY=0.026;entryDx=0;entryDy=0;entryPerimeter=0;elbow=vertical;exitX=0.5;exitY=0;exitDx=0;exitDy=0;labelBackgroundColor=none;strokeColor=#457B9D;fontColor=default;" edge="1" parent="3U8508BYd-Jw2ItALoRt-1" source="3U8508BYd-Jw2ItALoRt-34" target="3U8508BYd-Jw2ItALoRt-34">
          <mxGeometry relative="1" as="geometry">
            <mxPoint x="260" y="300" as="sourcePoint" />
          </mxGeometry>
        </mxCell>
        <mxCell id="3U8508BYd-Jw2ItALoRt-41" style="edgeStyle=elbowEdgeStyle;rounded=0;orthogonalLoop=1;jettySize=auto;html=1;startArrow=none;endArrow=none;exitX=1;exitY=0.5;exitDx=0;exitDy=0;entryX=0.5;entryY=0;entryDx=0;entryDy=0;labelBackgroundColor=none;strokeColor=#457B9D;fontColor=default;" edge="1" parent="3U8508BYd-Jw2ItALoRt-1" source="3U8508BYd-Jw2ItALoRt-14" target="3U8508BYd-Jw2ItALoRt-34">
          <mxGeometry relative="1" as="geometry">
            <Array as="points">
              <mxPoint x="390" y="320" />
            </Array>
          </mxGeometry>
        </mxCell>
        <mxCell id="3U8508BYd-Jw2ItALoRt-14" value="Thin" style="whiteSpace=wrap;html=1;align=center;verticalAlign=middle;treeFolding=1;treeMoving=1;newEdgeStyle={&quot;edgeStyle&quot;:&quot;elbowEdgeStyle&quot;,&quot;startArrow&quot;:&quot;none&quot;,&quot;endArrow&quot;:&quot;none&quot;};sketch=1;curveFitting=1;jiggle=2;shadow=1;labelBackgroundColor=none;fillColor=#A8DADC;strokeColor=#457B9D;fontColor=#1D3557;" vertex="1" parent="3U8508BYd-Jw2ItALoRt-1">
          <mxGeometry x="240" y="240" width="100" height="60" as="geometry" />
        </mxCell>
        <mxCell id="3U8508BYd-Jw2ItALoRt-31" value="" style="edgeStyle=elbowEdgeStyle;elbow=vertical;sourcePerimeterSpacing=0;targetPerimeterSpacing=0;startArrow=none;endArrow=none;rounded=0;curved=0;labelBackgroundColor=none;strokeColor=#457B9D;fontColor=default;" edge="1" target="3U8508BYd-Jw2ItALoRt-32" source="3U8508BYd-Jw2ItALoRt-9" parent="3U8508BYd-Jw2ItALoRt-1">
          <mxGeometry relative="1" as="geometry">
            <mxPoint x="635" y="150" as="sourcePoint" />
          </mxGeometry>
        </mxCell>
        <mxCell id="3U8508BYd-Jw2ItALoRt-40" style="edgeStyle=elbowEdgeStyle;rounded=0;orthogonalLoop=1;jettySize=auto;html=1;startArrow=none;endArrow=none;entryX=0.582;entryY=-0.004;entryDx=0;entryDy=0;entryPerimeter=0;labelBackgroundColor=none;strokeColor=#457B9D;fontColor=default;" edge="1" parent="3U8508BYd-Jw2ItALoRt-1" source="3U8508BYd-Jw2ItALoRt-32" target="3U8508BYd-Jw2ItALoRt-34">
          <mxGeometry relative="1" as="geometry">
            <Array as="points">
              <mxPoint x="600" y="280" />
              <mxPoint x="310" y="310" />
            </Array>
          </mxGeometry>
        </mxCell>
        <mxCell id="3U8508BYd-Jw2ItALoRt-32" value="Pan" style="whiteSpace=wrap;html=1;align=center;verticalAlign=middle;treeFolding=1;treeMoving=1;newEdgeStyle={&quot;edgeStyle&quot;:&quot;elbowEdgeStyle&quot;,&quot;startArrow&quot;:&quot;none&quot;,&quot;endArrow&quot;:&quot;none&quot;};sketch=1;curveFitting=1;jiggle=2;shadow=1;labelBackgroundColor=none;fillColor=#A8DADC;strokeColor=#457B9D;fontColor=#1D3557;" vertex="1" parent="3U8508BYd-Jw2ItALoRt-1">
          <mxGeometry x="660" y="240" width="100" height="60" as="geometry" />
        </mxCell>
        <mxCell id="3U8508BYd-Jw2ItALoRt-34" value="" style="shape=ext;double=1;rounded=1;whiteSpace=wrap;html=1;sketch=1;curveFitting=1;jiggle=2;shadow=1;labelBackgroundColor=none;fillColor=#A8DADC;strokeColor=#457B9D;fontColor=#1D3557;" vertex="1" parent="3U8508BYd-Jw2ItALoRt-1">
          <mxGeometry x="290" y="400" width="420" height="110" as="geometry" />
        </mxCell>
        <mxCell id="3U8508BYd-Jw2ItALoRt-12" value="&lt;br&gt;&amp;nbsp;Customers can choose from the following pizza toppings:&lt;br&gt;&amp;nbsp;pepperoni, cheese, ground beef, chicken, bell pepper, and sausage.&amp;nbsp;" style="text;html=1;align=center;verticalAlign=middle;resizable=0;points=[];autosize=1;strokeColor=none;fillColor=none;labelBackgroundColor=none;fontColor=#1D3557;" vertex="1" parent="3U8508BYd-Jw2ItALoRt-1">
          <mxGeometry x="305" y="415" width="390" height="60" as="geometry" />
        </mxCell>
        <mxCell id="3U8508BYd-Jw2ItALoRt-43" value="" style="edgeStyle=elbowEdgeStyle;elbow=vertical;sourcePerimeterSpacing=0;targetPerimeterSpacing=0;startArrow=none;endArrow=none;rounded=0;curved=0;labelBackgroundColor=none;strokeColor=#457B9D;fontColor=default;" edge="1" target="3U8508BYd-Jw2ItALoRt-44" source="3U8508BYd-Jw2ItALoRt-4" parent="3U8508BYd-Jw2ItALoRt-1">
          <mxGeometry relative="1" as="geometry">
            <mxPoint x="555" y="130" as="sourcePoint" />
          </mxGeometry>
        </mxCell>
        <mxCell id="3U8508BYd-Jw2ItALoRt-44" value="Order Here" style="whiteSpace=wrap;html=1;align=center;verticalAlign=middle;treeFolding=1;treeMoving=1;newEdgeStyle={&quot;edgeStyle&quot;:&quot;elbowEdgeStyle&quot;,&quot;startArrow&quot;:&quot;none&quot;,&quot;endArrow&quot;:&quot;none&quot;};labelBackgroundColor=none;fillColor=#A8DADC;strokeColor=#457B9D;fontColor=#1D3557;" vertex="1" parent="3U8508BYd-Jw2ItALoRt-1">
          <mxGeometry x="1010" y="140" width="100" height="60" as="geometry" />
        </mxCell>
        <mxCell id="3U8508BYd-Jw2ItALoRt-45" value="Each Menu Item has an order now option" style="text;html=1;strokeColor=none;fillColor=none;align=center;verticalAlign=middle;whiteSpace=wrap;rounded=0;labelBackgroundColor=none;fontColor=#1D3557;" vertex="1" parent="3U8508BYd-Jw2ItALoRt-1">
          <mxGeometry x="457.5" y="285" width="75" height="40" as="geometry" />
        </mxCell>
        <mxCell id="3U8508BYd-Jw2ItALoRt-50" value="" style="edgeStyle=elbowEdgeStyle;elbow=vertical;sourcePerimeterSpacing=0;targetPerimeterSpacing=0;startArrow=none;endArrow=none;rounded=0;curved=0;labelBackgroundColor=none;strokeColor=#457B9D;fontColor=default;" edge="1" target="3U8508BYd-Jw2ItALoRt-51" source="3U8508BYd-Jw2ItALoRt-44" parent="3U8508BYd-Jw2ItALoRt-1">
          <mxGeometry relative="1" as="geometry">
            <mxPoint x="535" y="130" as="sourcePoint" />
          </mxGeometry>
        </mxCell>
        <mxCell id="3U8508BYd-Jw2ItALoRt-58" style="edgeStyle=elbowEdgeStyle;rounded=0;orthogonalLoop=1;jettySize=auto;html=1;startArrow=none;endArrow=none;exitX=0.5;exitY=1;exitDx=0;exitDy=0;entryX=0.5;entryY=1;entryDx=0;entryDy=0;labelBackgroundColor=none;strokeColor=#457B9D;fontColor=default;" edge="1" parent="3U8508BYd-Jw2ItALoRt-1" source="3U8508BYd-Jw2ItALoRt-51" target="3U8508BYd-Jw2ItALoRt-51">
          <mxGeometry relative="1" as="geometry">
            <mxPoint x="1050" y="360" as="targetPoint" />
            <Array as="points">
              <mxPoint x="940" y="390" />
              <mxPoint x="1000" y="340" />
            </Array>
          </mxGeometry>
        </mxCell>
        <mxCell id="3U8508BYd-Jw2ItALoRt-51" value="Eat In&amp;nbsp;" style="whiteSpace=wrap;html=1;align=center;verticalAlign=middle;treeFolding=1;treeMoving=1;newEdgeStyle={&quot;edgeStyle&quot;:&quot;elbowEdgeStyle&quot;,&quot;startArrow&quot;:&quot;none&quot;,&quot;endArrow&quot;:&quot;none&quot;};sketch=1;curveFitting=1;jiggle=2;shadow=1;labelBackgroundColor=none;fillColor=#A8DADC;strokeColor=#457B9D;fontColor=#1D3557;" vertex="1" parent="3U8508BYd-Jw2ItALoRt-1">
          <mxGeometry x="880" y="240" width="100" height="60" as="geometry" />
        </mxCell>
        <mxCell id="3U8508BYd-Jw2ItALoRt-54" style="edgeStyle=elbowEdgeStyle;rounded=0;orthogonalLoop=1;jettySize=auto;html=1;startArrow=none;endArrow=none;exitX=1;exitY=0.5;exitDx=0;exitDy=0;entryX=1;entryY=0.75;entryDx=0;entryDy=0;labelBackgroundColor=none;strokeColor=#457B9D;fontColor=default;" edge="1" parent="3U8508BYd-Jw2ItALoRt-1" source="3U8508BYd-Jw2ItALoRt-44" target="3U8508BYd-Jw2ItALoRt-44">
          <mxGeometry relative="1" as="geometry" />
        </mxCell>
        <mxCell id="3U8508BYd-Jw2ItALoRt-56" value="" style="edgeStyle=elbowEdgeStyle;elbow=vertical;sourcePerimeterSpacing=0;targetPerimeterSpacing=0;startArrow=none;endArrow=none;rounded=0;curved=0;labelBackgroundColor=none;strokeColor=#457B9D;fontColor=default;" edge="1" target="3U8508BYd-Jw2ItALoRt-57" source="3U8508BYd-Jw2ItALoRt-44" parent="3U8508BYd-Jw2ItALoRt-1">
          <mxGeometry relative="1" as="geometry">
            <mxPoint x="825" y="140" as="sourcePoint" />
          </mxGeometry>
        </mxCell>
        <mxCell id="3U8508BYd-Jw2ItALoRt-59" style="edgeStyle=elbowEdgeStyle;rounded=0;orthogonalLoop=1;jettySize=auto;html=1;startArrow=none;endArrow=none;exitX=0.5;exitY=1;exitDx=0;exitDy=0;entryX=1;entryY=0.5;entryDx=0;entryDy=0;labelBackgroundColor=none;strokeColor=#457B9D;fontColor=default;" edge="1" parent="3U8508BYd-Jw2ItALoRt-1">
          <mxGeometry relative="1" as="geometry">
            <mxPoint x="1100" y="509.9999999999998" as="targetPoint" />
            <mxPoint x="1161" y="300" as="sourcePoint" />
            <Array as="points">
              <mxPoint x="1190" y="490" />
              <mxPoint x="1040" y="300" />
              <mxPoint x="1090" y="330" />
            </Array>
          </mxGeometry>
        </mxCell>
        <mxCell id="3U8508BYd-Jw2ItALoRt-81" style="edgeStyle=elbowEdgeStyle;rounded=0;orthogonalLoop=1;jettySize=auto;html=1;startArrow=none;endArrow=none;exitX=1;exitY=0.5;exitDx=0;exitDy=0;labelBackgroundColor=none;strokeColor=#457B9D;fontColor=default;" edge="1" parent="3U8508BYd-Jw2ItALoRt-1" source="3U8508BYd-Jw2ItALoRt-57">
          <mxGeometry relative="1" as="geometry">
            <mxPoint x="1299.9999999999995" y="340" as="targetPoint" />
          </mxGeometry>
        </mxCell>
        <mxCell id="3U8508BYd-Jw2ItALoRt-57" value="Take Out&amp;nbsp;" style="whiteSpace=wrap;html=1;align=center;verticalAlign=middle;treeFolding=1;treeMoving=1;newEdgeStyle={&quot;edgeStyle&quot;:&quot;elbowEdgeStyle&quot;,&quot;startArrow&quot;:&quot;none&quot;,&quot;endArrow&quot;:&quot;none&quot;};sketch=1;curveFitting=1;jiggle=2;shadow=1;labelBackgroundColor=none;fillColor=#A8DADC;strokeColor=#457B9D;fontColor=#1D3557;" vertex="1" parent="3U8508BYd-Jw2ItALoRt-1">
          <mxGeometry x="1141" y="240" width="100" height="60" as="geometry" />
        </mxCell>
        <mxCell id="3U8508BYd-Jw2ItALoRt-67" style="edgeStyle=orthogonalEdgeStyle;rounded=0;orthogonalLoop=1;jettySize=auto;html=1;labelBackgroundColor=none;strokeColor=#457B9D;fontColor=default;" edge="1" parent="3U8508BYd-Jw2ItALoRt-1" source="3U8508BYd-Jw2ItALoRt-66">
          <mxGeometry relative="1" as="geometry">
            <mxPoint x="570" y="190" as="targetPoint" />
            <Array as="points">
              <mxPoint x="810" y="390" />
              <mxPoint x="810" y="190" />
            </Array>
          </mxGeometry>
        </mxCell>
        <mxCell id="3U8508BYd-Jw2ItALoRt-89" style="edgeStyle=orthogonalEdgeStyle;rounded=0;orthogonalLoop=1;jettySize=auto;html=1;exitX=0.5;exitY=1;exitDx=0;exitDy=0;labelBackgroundColor=none;strokeColor=#457B9D;fontColor=default;" edge="1" parent="3U8508BYd-Jw2ItALoRt-1" source="3U8508BYd-Jw2ItALoRt-66">
          <mxGeometry relative="1" as="geometry">
            <mxPoint x="1069.545454545454" y="599.9999999999998" as="targetPoint" />
          </mxGeometry>
        </mxCell>
        <mxCell id="3U8508BYd-Jw2ItALoRt-66" value="Menu" style="whiteSpace=wrap;html=1;rounded=1;glass=0;sketch=1;curveFitting=1;jiggle=2;shadow=1;labelBackgroundColor=none;fillColor=#A8DADC;strokeColor=#457B9D;fontColor=#1D3557;" vertex="1" parent="3U8508BYd-Jw2ItALoRt-1">
          <mxGeometry x="1010" y="480" width="120" height="60" as="geometry" />
        </mxCell>
        <mxCell id="3U8508BYd-Jw2ItALoRt-79" value="" style="edgeStyle=elbowEdgeStyle;elbow=vertical;sourcePerimeterSpacing=0;targetPerimeterSpacing=0;startArrow=none;endArrow=none;rounded=0;curved=0;labelBackgroundColor=none;strokeColor=#457B9D;fontColor=default;" edge="1" target="3U8508BYd-Jw2ItALoRt-80" source="3U8508BYd-Jw2ItALoRt-57" parent="3U8508BYd-Jw2ItALoRt-1">
          <mxGeometry relative="1" as="geometry">
            <mxPoint x="1110" y="230" as="sourcePoint" />
          </mxGeometry>
        </mxCell>
        <mxCell id="3U8508BYd-Jw2ItALoRt-85" style="edgeStyle=elbowEdgeStyle;rounded=0;orthogonalLoop=1;jettySize=auto;html=1;startArrow=none;endArrow=none;labelBackgroundColor=none;strokeColor=#457B9D;fontColor=default;" edge="1" parent="3U8508BYd-Jw2ItALoRt-1" source="3U8508BYd-Jw2ItALoRt-80">
          <mxGeometry relative="1" as="geometry">
            <mxPoint x="1191" y="509.9999999999998" as="targetPoint" />
          </mxGeometry>
        </mxCell>
        <mxCell id="3U8508BYd-Jw2ItALoRt-80" value="Pick Up" style="whiteSpace=wrap;html=1;align=center;verticalAlign=middle;treeFolding=1;treeMoving=1;newEdgeStyle={&quot;edgeStyle&quot;:&quot;elbowEdgeStyle&quot;,&quot;startArrow&quot;:&quot;none&quot;,&quot;endArrow&quot;:&quot;none&quot;};rounded=1;sketch=1;curveFitting=1;jiggle=2;shadow=1;labelBackgroundColor=none;fillColor=#A8DADC;strokeColor=#457B9D;fontColor=#1D3557;" vertex="1" parent="3U8508BYd-Jw2ItALoRt-1">
          <mxGeometry x="1141" y="340" width="100" height="60" as="geometry" />
        </mxCell>
        <mxCell id="3U8508BYd-Jw2ItALoRt-84" style="edgeStyle=orthogonalEdgeStyle;rounded=0;orthogonalLoop=1;jettySize=auto;html=1;exitX=0.5;exitY=1;exitDx=0;exitDy=0;entryX=1;entryY=0.75;entryDx=0;entryDy=0;labelBackgroundColor=none;strokeColor=#457B9D;fontColor=default;" edge="1" parent="3U8508BYd-Jw2ItALoRt-1" source="3U8508BYd-Jw2ItALoRt-83" target="3U8508BYd-Jw2ItALoRt-66">
          <mxGeometry relative="1" as="geometry" />
        </mxCell>
        <mxCell id="3U8508BYd-Jw2ItALoRt-83" value="Delivery" style="whiteSpace=wrap;html=1;rounded=1;sketch=1;curveFitting=1;jiggle=2;shadow=1;labelBackgroundColor=none;fillColor=#A8DADC;strokeColor=#457B9D;fontColor=#1D3557;" vertex="1" parent="3U8508BYd-Jw2ItALoRt-1">
          <mxGeometry x="1270" y="340" width="100" height="60" as="geometry" />
        </mxCell>
        <mxCell id="3U8508BYd-Jw2ItALoRt-99" style="edgeStyle=orthogonalEdgeStyle;rounded=0;orthogonalLoop=1;jettySize=auto;html=1;exitX=0.5;exitY=1;exitDx=0;exitDy=0;labelBackgroundColor=none;strokeColor=#457B9D;fontColor=default;" edge="1" parent="3U8508BYd-Jw2ItALoRt-1" source="3U8508BYd-Jw2ItALoRt-91">
          <mxGeometry relative="1" as="geometry">
            <mxPoint x="1069.545454545454" y="830" as="targetPoint" />
          </mxGeometry>
        </mxCell>
        <mxCell id="3U8508BYd-Jw2ItALoRt-91" value="Customer Info" style="whiteSpace=wrap;html=1;labelBackgroundColor=none;fillColor=#A8DADC;strokeColor=#457B9D;fontColor=#1D3557;rounded=1;shadow=1;sketch=1;curveFitting=1;jiggle=2;" vertex="1" parent="3U8508BYd-Jw2ItALoRt-1">
          <mxGeometry x="1010" y="740" width="120" height="50" as="geometry" />
        </mxCell>
        <mxCell id="3U8508BYd-Jw2ItALoRt-94" value="Order Tracker" style="whiteSpace=wrap;html=1;labelBackgroundColor=none;fillColor=#A8DADC;strokeColor=#457B9D;fontColor=#1D3557;rounded=1;shadow=1;sketch=1;curveFitting=1;jiggle=2;" vertex="1" parent="3U8508BYd-Jw2ItALoRt-1">
          <mxGeometry x="1010" y="840" width="120" height="50" as="geometry" />
        </mxCell>
        <mxCell id="3U8508BYd-Jw2ItALoRt-90" value="Check Out" style="whiteSpace=wrap;html=1;labelBackgroundColor=none;fillColor=#A8DADC;strokeColor=#457B9D;fontColor=#1D3557;sketch=1;curveFitting=1;jiggle=2;shadow=1;rounded=1;" vertex="1" parent="3U8508BYd-Jw2ItALoRt-1">
          <mxGeometry x="1010" y="620" width="120" height="50" as="geometry" />
        </mxCell>
        <mxCell id="3U8508BYd-Jw2ItALoRt-92" value="" style="edgeStyle=orthogonalEdgeStyle;rounded=0;orthogonalLoop=1;jettySize=auto;html=1;labelBackgroundColor=none;strokeColor=#457B9D;fontColor=default;" edge="1" parent="3U8508BYd-Jw2ItALoRt-1" source="3U8508BYd-Jw2ItALoRt-90">
          <mxGeometry relative="1" as="geometry">
            <mxPoint x="1070" y="720" as="targetPoint" />
          </mxGeometry>
        </mxCell>
        <mxCell id="3U8508BYd-Jw2ItALoRt-103" value="About Us can also have the contact us option" style="text;html=1;align=center;verticalAlign=middle;resizable=0;points=[];autosize=1;strokeColor=none;fillColor=none;labelBackgroundColor=none;fontColor=#1D3557;" vertex="1" parent="3U8508BYd-Jw2ItALoRt-1">
          <mxGeometry x="625" y="945" width="260" height="30" as="geometry" />
        </mxCell>
      </root>
    </mxGraphModel>
  </diagram>
</mxfile>
